<?xml version="1.0" encoding="utf-8"?>
<!-- Generator: Adobe Illustrator 17.0.0, SVG Export Plug-In . SVG Version: 6.00 Build 0)  -->
<!DOCTYPE svg PUBLIC "-//W3C//DTD SVG 1.1//EN" "http://www.w3.org/Graphics/SVG/1.1/DTD/svg11.dtd">
<svg version="1.1" id="Layer_1" xmlns="http://www.w3.org/2000/svg" xmlns:xlink="http://www.w3.org/1999/xlink" x="0px" y="0px"
	 width="36px" height="45px" viewBox="0 0 36 45" enable-background="new 0 0 36 45" xml:space="preserve">
<g>
	<path fill="#FFDE00" d="M28.266,7.925L26.05,10.28c4.73,3.051,7.479,8.64,6.545,14.483c-0.616,3.851-2.72,7.235-5.923,9.53
		c-2.796,2.003-6.14,2.967-9.549,2.775l0.586-0.604c-0.011-0.001-0.024,0.001-0.035,0.001l2.218-2.289l-2.048-1.923l-4.398,4.542
		l-0.001-0.002l-1.898,1.96l2.047,1.921l0.001-0.001L18.209,45l1.899-1.96l-2.989-2.801c4.091,0.19,8.093-0.979,11.449-3.383
		c3.9-2.793,6.461-6.913,7.211-11.601C36.885,18.331,33.746,11.698,28.266,7.925z"/>
	<path fill="#FFDE00" d="M3.406,20.238c0.616-3.851,2.72-7.235,5.923-9.53c2.796-2.003,6.14-2.967,9.549-2.775l-0.585,0.604
		c0.011,0.001,0.024-0.001,0.035-0.001l-2.218,2.289l2.048,1.923l4.398-4.542l0.001,0.002l1.898-1.96l-2.047-1.921l-0.001,0.001
		L17.791,0l-1.899,1.96l2.989,2.801c-4.091-0.19-8.093,0.979-11.449,3.383c-3.9,2.793-6.461,6.913-7.211,11.601
		c-1.107,6.924,2.033,13.557,7.512,17.33l2.216-2.355C5.221,31.669,2.472,26.08,3.406,20.238z"/>
</g>
</svg>
