<?xml version="1.0" encoding="utf-8"?>
<!-- Generator: Adobe Illustrator 17.0.0, SVG Export Plug-In . SVG Version: 6.00 Build 0)  -->
<!DOCTYPE svg PUBLIC "-//W3C//DTD SVG 1.1//EN" "http://www.w3.org/Graphics/SVG/1.1/DTD/svg11.dtd">
<svg version="1.1" id="Layer_1" xmlns="http://www.w3.org/2000/svg" xmlns:xlink="http://www.w3.org/1999/xlink" x="0px" y="0px"
	 width="21.571px" height="21.572px" viewBox="0 0 21.571 21.572" enable-background="new 0 0 21.571 21.572" xml:space="preserve">
<g>
	<path fill="#E7EDED" d="M7.901,16.912l-3.218,1.755c-0.189,0.103-0.359,0.23-0.517,0.368c1.876,1.582,4.298,2.537,6.945,2.537
		c2.627,0,5.034-0.94,6.905-2.501c-0.173-0.146-0.36-0.277-0.567-0.38l-3.446-1.723c-0.445-0.223-0.727-0.678-0.727-1.175V14.44
		c0.097-0.11,0.208-0.252,0.326-0.419c0.47-0.663,0.825-1.393,1.071-2.159c0.442-0.136,0.768-0.545,0.768-1.03V9.389
		c0-0.317-0.141-0.601-0.361-0.8V6.503c0,0,0.429-3.247-3.968-3.247S7.143,6.503,7.143,6.503V8.59
		c-0.22,0.199-0.361,0.482-0.361,0.8v1.443c0,0.38,0.2,0.715,0.499,0.908c0.361,1.57,1.305,2.7,1.305,2.7v1.319
		C8.586,16.239,8.323,16.682,7.901,16.912z"/>
	<path fill="#556180" d="M10.97,0.002C5.014-0.1,0.103,4.646,0.002,10.601c-0.058,3.377,1.447,6.412,3.844,8.43
		c0.157-0.137,0.325-0.262,0.512-0.364l3.218-1.755c0.422-0.23,0.685-0.673,0.685-1.154V14.44c0,0-0.945-1.13-1.305-2.7
		c-0.299-0.193-0.499-0.527-0.499-0.908V9.389c0-0.317,0.141-0.601,0.361-0.8V6.503c0,0-0.429-3.247,3.968-3.247
		s3.968,3.247,3.968,3.247v2.086c0.22,0.199,0.361,0.482,0.361,0.8v1.443c0,0.485-0.326,0.893-0.768,1.03
		c-0.246,0.766-0.602,1.495-1.071,2.159c-0.118,0.167-0.229,0.309-0.326,0.419v1.352c0,0.498,0.281,0.953,0.727,1.175l3.446,1.723
		c0.207,0.103,0.394,0.234,0.566,0.379c2.324-1.938,3.826-4.836,3.881-8.1C21.672,5.014,16.927,0.103,10.97,0.002z"/>
</g>
</svg>
